<?xml version="1.0" encoding="UTF-8"?>
<!DOCTYPE svg PUBLIC "-//W3C//DTD SVG 1.1//EN" "http://www.w3.org/Graphics/SVG/1.1/DTD/svg11.dtd">
<svg version="1.1" xmlns="http://www.w3.org/2000/svg" xmlns:xlink="http://www.w3.org/1999/xlink" x="0" y="0" width="721.814" height="745.981" viewBox="0, 0, 721.814, 745.981">
  <g id="Layer_1">
    <path d="M503.529,739.373 C473.076,733.183 443.506,718.007 411.613,698.324 C290.339,623.478 180.153,502.061 115.291,371.801 L106.986,355.121 L103.436,356.651 C82.991,365.463 70.797,364.984 66.707,355.208 C64.837,350.738 65.309,343.617 68.332,330.691 C72.295,313.746 70.811,299.452 61.891,268.656 C55.299,245.896 52.746,234.664 51.312,222.106 C48.139,194.31 57.249,155.41 71.645,135.287 L74.645,131.093 L71.596,127.287 C67.318,121.944 60.776,115.849 46.861,104.24 C32.395,92.172 15.329,75.536 9.631,67.948 C3.579,59.891 -0.021,51.491 0,45.48 C0.059,28.615 27.439,6.701 55.054,1.417 C63.277,-0.156 75.387,-0.512 75.387,0.82 C75.387,1.282 78.464,2.21 82.223,2.882 C90.571,4.373 97.945,7.723 101.71,11.734 C104.46,14.664 104.505,14.891 103.46,20.545 C100.034,39.079 105.933,58.179 119.492,72.454 C123.278,76.439 128.147,80.928 130.312,82.428 L134.249,85.156 L143.494,83.568 C173.76,78.369 207.289,86.251 233.022,104.613 C236.613,107.176 247.052,116.53 256.219,125.401 C277.787,146.269 287.19,152.958 301.387,157.528 C305.924,158.988 310.759,159.314 328.983,159.389 C353.596,159.491 352.708,159.258 357.102,166.756 C363.639,177.91 359.986,199.003 349.053,213.227 L345.405,217.974 L349.232,224.227 C351.337,227.666 359.49,241.505 367.35,254.98 C383.007,281.822 407.199,320.271 419.059,337.16 C443.003,371.262 470.864,396.118 510.802,419.009 C534.908,432.826 552.213,439.593 589.887,449.937 C623.69,459.218 637.223,463.83 651.887,471.065 C670.018,480.01 682.191,489.919 693.346,504.814 C704.143,519.232 713.604,541.841 719.049,566.24 C721.407,576.805 721.785,580.738 721.814,594.98 C721.849,612.974 720.689,620.519 715.199,637.98 C699.474,687.993 659.928,726.291 607.372,739.434 C571.479,748.41 545.641,747.933 503.529,739.373 z" fill="#000000" id="path56040"/>
    <path d="M632.52,706.914 C657.893,694.339 678.911,671.397 688.482,646.577 C695.014,629.64 698.339,611.023 698.369,591.224 C698.424,554.435 686.804,526.203 663.269,505.947 C644.61,489.888 625.147,480.694 572.387,463.018 C518.603,444.998 501.07,436.409 472.277,413.98 C437.605,386.971 408.465,354.146 378.138,307.936 C364.35,286.926 360.851,281.18 343.766,251.48 L330.535,228.48 L316.796,227.596 L303.058,226.712 L301.006,229.596 C292.709,241.256 276.514,249.627 257.453,252.108 C249.924,253.088 247.471,252.966 237.184,251.101 C224.734,248.845 215.832,248.413 213.404,249.949 C212.37,250.603 211.923,252.642 211.928,256.683 C211.934,261.612 212.741,264.184 217.32,273.856 C222.934,285.716 224.551,292.937 222.465,296.834 C221.486,298.664 220.43,298.98 215.295,298.98 C207.206,298.98 202.465,297.706 185.387,290.94 C177.412,287.781 169.498,284.903 167.801,284.545 L164.714,283.893 L164.729,294.187 C164.739,301.139 164.17,306.428 162.976,310.48 C159.015,323.922 149.509,337.62 136.996,347.919 C133.361,350.91 130.387,353.721 130.387,354.165 C130.387,355.418 159.233,406.164 172.63,428.48 C194.049,464.157 211.1,489.011 228.055,509.269 C248.489,533.682 298.896,585.112 323.136,606.278 C364.983,642.817 427.988,686.434 462.609,701.212 C514.726,723.457 578.373,733.75 632.52,706.914 z" fill="#7517B6" id="path56038"/>
    <path d="M530.387,689.993 C520.316,686.654 504.649,681.979 503.53,681.979 C502.624,681.98 502.418,681.399 502.909,680.23 C503.313,679.268 503.864,677.468 504.132,676.23 C504.401,674.993 505.13,673.981 505.754,673.983 C506.377,673.985 511.837,675.5 517.887,677.349 C523.937,679.199 534.962,682.169 542.387,683.949 C549.812,685.73 556.069,687.359 556.291,687.57 C556.513,687.781 555.065,688.635 553.073,689.467 C549.146,691.108 534.755,691.442 530.387,689.993 z" fill="#000000" id="path56036"/>
    <path d="M452.431,657.48 L452.409,652.73 C452.397,650.118 452.696,647.98 453.074,647.98 C453.452,647.98 459.077,650.99 465.574,654.669 L477.387,661.357 L477.387,665.669 C477.387,668.04 477.05,669.951 476.637,669.916 C463.588,663.625 460.894,660.737 452.431,657.48 z" fill="#000000" id="path56034"/>
    <path d="M419.75,635.23 C417.584,633.718 412.822,630.283 409.168,627.598 L402.523,622.715 L404.702,619.598 C405.9,617.883 406.976,616.311 407.093,616.104 C407.21,615.897 411.374,618.777 416.347,622.505 C425.31,629.223 425.387,629.318 425.387,633.631 C425.387,636.023 425.005,637.98 424.538,637.98 C424.071,637.98 421.916,636.743 419.75,635.23 z" fill="#000000" id="path56032"/>
    <path d="M370.387,596.262 C367.912,594.238 363.862,590.752 361.387,588.516 C358.912,586.279 355.667,583.505 354.176,582.351 L351.464,580.253 L353.34,576.573 L355.216,572.893 L364.052,580.329 C377.003,591.227 377.761,592.173 376.964,596.424 C376.597,598.38 375.98,599.971 375.592,599.961 C375.204,599.95 372.862,598.285 370.387,596.262 z" fill="#000000" id="path56030"/>
    <path d="M319.997,551.075 C315.657,547.357 311.094,542.553 309.857,540.398 C307.62,536.503 305.703,528.98 306.948,528.98 C309.48,528.98 323.072,541.536 325.352,545.98 C326.939,549.073 329.113,558.099 328.225,557.907 C328.039,557.867 324.337,554.792 319.997,551.075 z" fill="#000000" id="path56028"/>
    <path d="M530.831,507.989 C527.499,506.909 523.055,504.541 520.955,502.725 C517.695,499.907 517.066,498.692 516.656,494.422 C516.227,489.96 516.484,489.089 519.031,486.364 C522.691,482.449 530.95,479.379 541.655,477.954 C561.06,475.372 574.242,482.223 573.116,494.305 C572.554,500.34 570.037,503.769 563.818,506.974 C557.094,510.439 540.014,510.964 530.831,507.989 z" fill="#000000" id="path56026"/>
    <path d="M559.001,500.461 C565.598,495.429 565.849,489.674 559.639,485.813 C556.395,483.796 554.603,483.481 546.387,483.483 C529.207,483.488 523.188,487.893 527.904,497.013 C531.955,504.847 550.548,506.908 559.001,500.461 z" fill="#FFFFFF" id="path56024"/>
    <path d="M276.721,503.144 C271.006,496.503 268.395,491.987 268.391,488.73 C268.386,485.376 270.479,485.129 275.089,487.94 C280.149,491.025 282.917,498.206 281.562,504.733 L280.887,507.986 z" fill="#000000" id="path56022"/>
    <path d="M463.792,461.652 C459.71,458.14 460.965,454.667 467.135,452.404 C475.092,449.484 475.311,448.862 470.431,443.033 C465.957,437.689 453.813,427.669 436.138,414.739 C403.106,390.574 376.075,358.678 351.814,315.238 C347.589,307.671 340.844,295.63 336.826,288.48 C328.135,273.012 324.156,264.362 321.534,255.234 C318.319,244.037 318.172,241.249 320.702,239.441 C322.791,237.947 323.08,238.089 327.291,242.68 C330.593,246.28 335.298,254.856 346.108,276.98 C369.623,325.107 374.174,333.438 386.237,350.447 C397.598,366.466 427.275,393.046 456.079,413 C479.89,429.495 488.117,439.036 487.156,449.039 C486.326,457.676 479.316,463.98 470.542,463.98 C467.75,463.98 465.661,463.259 463.792,461.652 z" fill="#000000" id="path56020"/>
    <path d="M101.831,329.911 C104.212,327.276 105.967,323.775 107.414,318.774 C110.761,307.212 112.445,303.025 114.894,300.178 C116.883,297.865 117.548,297.648 120.033,298.501 C124.381,299.993 127.036,306.499 128.717,319.777 C129.503,325.99 130.384,331.31 130.674,331.6 C131.481,332.407 136.629,329.457 139.005,326.825 C146.106,318.962 147.513,312.587 148.276,284.807 C148.619,272.337 149.165,261.869 149.49,261.544 C149.815,261.219 156.233,263.87 163.753,267.434 C180.72,275.478 199.344,282.98 202.341,282.98 C204.087,282.98 204.446,282.582 203.919,281.23 C202.781,278.312 199.544,261.873 198.835,255.412 C197.918,247.047 199.776,238.746 203.52,234.482 L206.486,231.104 L210.623,232.563 C217.44,234.968 226.274,236.766 237.461,238.025 C249.479,239.377 261.831,238.248 271.257,234.935 C277.375,232.784 283.525,228.951 283.076,227.568 C282.912,227.066 280.103,225.911 276.833,225.002 C266.405,222.104 261.516,218.324 259.908,211.919 L259.296,209.48 L283.592,209.48 C309.252,209.48 313.865,208.838 323.492,203.927 C330.752,200.223 337.311,191.266 337.365,184.98 C337.386,182.511 337.279,182.479 328.637,182.366 C316.58,182.209 306.604,180.49 295.229,176.607 C278.848,171.017 267.336,163.501 243.084,142.567 C213.9,117.374 198.671,109.226 174.668,105.959 C165.984,104.777 147.034,105 145.736,106.299 C145.409,106.625 145.868,109.725 146.757,113.186 C147.645,116.648 148.488,120.782 148.63,122.373 C148.871,125.081 149.592,125.535 159.887,129.447 C172.736,134.329 176.014,135.954 180.311,139.57 C183.553,142.298 187.975,149.725 186.961,150.74 C186.1,151.601 181.625,149.307 173.866,144.025 C163.23,136.785 156.734,133.822 150.2,133.23 C144.32,132.696 143.715,133.064 144.993,136.396 C145.327,137.265 149.489,140.841 154.243,144.342 C158.998,147.843 163.658,151.573 164.599,152.631 C166.777,155.076 169.387,161.284 169.387,164.016 C169.387,166.115 169.384,166.114 166.201,163.848 C164.449,162.6 159.257,158.039 154.664,153.713 C143.024,142.749 136.843,140.666 128.531,144.907 C123.817,147.312 122.067,149.365 122.758,151.682 C123.053,152.671 124.008,160.23 124.879,168.48 C125.75,176.73 127.123,188.916 127.93,195.56 C130.183,214.115 134.714,229.506 139.388,234.481 C141.848,237.1 144.513,243.488 143.858,245.196 C143.578,245.926 142.453,247.083 141.358,247.767 C137.39,250.245 128.771,243.794 124.397,235.073 C119.077,224.466 114.226,199.185 109.894,159.48 C108.824,149.679 108.789,149.62 102.585,147.283 C99.451,146.102 95.504,144.857 93.814,144.517 C90.799,143.911 90.672,144.048 87.16,151.69 C79.11,169.201 77.874,176.224 77.96,203.98 C78.035,228.434 78.77,235.087 85.422,271.48 C89.374,293.104 92.249,312.755 92.89,322.538 C93.249,328.006 93.705,333.008 93.904,333.653 C94.523,335.661 98.207,333.922 101.831,329.911 z" fill="#53B717" id="path56018"/>
    <path d="M181.145,184.412 C178.16,182.793 171.16,173.156 171.992,171.811 C172.274,171.354 174.504,170.98 176.946,170.98 C180.968,170.98 181.387,171.207 181.387,173.381 C181.387,175.066 182.432,176.399 184.887,177.848 C188.808,180.161 189.253,181.887 186.559,184.325 C184.388,186.29 184.599,186.286 181.145,184.412 z" fill="#000000" id="path56016"/>
    <path d="M126.814,138.123 C130.03,136.315 132.705,133.845 134.121,131.376 C137.449,125.571 136.882,125.288 131.996,130.315 C127.482,134.96 121.027,137.703 110.387,139.499 C106.692,140.123 106.245,140.411 107.887,141.11 C111.62,142.699 121.425,141.151 126.814,138.123 z" fill="#53B717" id="path56014"/>
    <path d="M120.433,129.27 C124.05,127.168 127.473,121.763 128.087,117.183 C128.603,113.333 128.45,113.107 119.373,104.372 C102.958,88.575 91.436,72.92 81.18,52.48 C77.869,45.88 74.984,40.291 74.769,40.06 C74.555,39.828 73.34,40.616 72.069,41.81 C70.798,43.003 69.225,43.98 68.573,43.98 C66.718,43.98 67.179,47.908 69.469,51.612 C71.164,54.355 71.271,54.98 70.046,54.98 C67.349,54.98 62.451,60.036 61.244,64.064 L60.064,68.001 L55.957,63.714 C53.698,61.356 50.058,58.564 47.868,57.509 C43.339,55.327 31.387,54.109 31.387,55.83 C31.387,58.539 44.206,71.525 60.887,85.718 C84.507,105.814 90.262,111.103 97.617,119.469 C108.771,132.159 112.618,133.812 120.433,129.27 z" fill="#53B717" id="path56012"/>
    <path d="M62.387,57.135 C62.387,54.986 59.846,52.509 56.637,51.531 C53.363,50.533 53.629,54.238 57.022,56.908 C60.284,59.474 62.387,59.563 62.387,57.135 z" fill="#53B717" id="path56010"/>
    <path d="M54.887,42.93 C58.187,41.698 62.815,39.318 65.172,37.641 C69.858,34.306 75.387,26.762 75.387,23.705 C75.387,21.898 74.849,21.814 67.137,22.421 C56.225,23.28 49.953,24.72 43.887,27.759 C36.524,31.448 32.605,34.753 29.686,39.734 C27.528,43.416 27.323,44.339 28.485,45.138 C30.963,46.842 48.29,45.393 54.887,42.93 z" fill="#53B717" id="path55997"/>
  </g>
</svg>
